<?xml version="1.0" encoding="UTF-8"?>
<svg id="_レイヤー_1" data-name="レイヤー_1" xmlns="http://www.w3.org/2000/svg" version="1.1" viewBox="0 0 85.04 85.04">
  <!-- Generator: Adobe Illustrator 30.2.1, SVG Export Plug-In . SVG Version: 2.1.1 Build 1)  -->
  <defs>
    <style>
      .st0 {
        fill: #231815;
      }
    </style>
  </defs>
  <path class="st0" d="M28.33,41.86c.38,0,.67-.35.59-.74-.06-.28-.32-.47-.61-.47h-1.56c.79-2.51,1.83-4.85,2.6-5.85,1.43.49,2.73.86,3.69.87h0c.96,0,1.73-.43,2.04-1.14.27-.61.14-1.31-.34-1.84-1.33-1.47-4.64-.07-5.72.72-.24-.08-.47-.17-.71-.25-2.4-.85-4.88-1.73-6.58-1.56-3.35.34-4.23,2.16-4.37,3.63-.12,1.23.44,2.54,1.42,3.33,1.01.81,2.33,1.01,3.7.57.25-.08.45-.37.42-.64-.04-.4-.43-.63-.79-.52-1.26.41-2.1.03-2.58-.36-.67-.54-1.06-1.43-.97-2.27.15-1.51,1.22-2.34,3.29-2.55,1.43-.15,3.89.73,6.06,1.49.08.03.16.06.24.09-1.08,1.6-2.12,4.44-2.68,6.27h-2.24c-.38,0-.67.35-.59.74.06.28.32.47.61.47h1.86c-.75,2.46-1.78,4.99-3.91,5.99-1.18.55-2.59.47-3.59-.21-.44-.3-1.16-.96-1.1-2.09.07-1.31.99-2.09,1.86-2.28.78-.17,1.45.12,1.79.77.17.33.61.43.92.18.23-.18.28-.51.14-.76-.6-1.11-1.81-1.65-3.11-1.37-1.32.29-2.69,1.45-2.81,3.39-.07,1.26.52,2.41,1.62,3.16.77.52,1.69.79,2.63.79.73,0,1.46-.16,2.15-.48,2.67-1.25,3.82-4.26,4.66-7.08h1.94ZM32.04,33.38c.87-.2,1.57-.16,1.81.11.16.18.21.37.13.54-.09.2-.39.42-.94.42h0c-.62,0-1.51-.22-2.5-.54.43-.21.95-.41,1.5-.53Z"/>
  <path class="st0" d="M72.64,49.55h0s-.05-.02-.05-.02c-.31-.11-.65.06-.76.37-.02.05-.52,1.31-3.17,1.88-1.21.26-2.5.15-3.8-.11.72-1.31,1.26-2.8,1.79-4.25.22-.6.42-1.16.64-1.7.31-.77.63-1.5.91-2.11.5-.94.81-1.65.83-1.7.13-.3,0-.64-.29-.79-.29-.14-.64-.03-.8.26-.02.05-.4.76-.89,1.8-1.16,2.15-2.71,4.32-3.76,4.34-.24,0-.28-.07-.3-.1-.06-.1-.33-.74.56-3.03.21-.54.44-1.05.63-1.46.31-.59.5-1,.51-1.03.14-.3.02-.65-.28-.79-.29-.15-.65-.03-.8.25-.02.03-.23.43-.51,1.03-.31.59-.74,1.38-1.24,2.17-1.7,2.7-2.59,2.93-2.83,2.93-.29,0-.4-.12-.47-.23-.19-.32-.46-1.44.89-5.04,0,0,0,0,0-.01h1.8c.4,0,.71-.39.57-.81-.08-.24-.31-.4-.57-.4h-1.22c.92-1.97,1.57-3.59,1.58-3.61.12-.3-.02-.64-.31-.77-.29-.13-.64-.02-.79.27-.04.08-1,1.93-1.89,4.12h-1.44c-.29,0-.55.19-.61.47-.08.39.21.74.59.74h.93s-.03.06-.05.1c-2.5,4.94-3.54,5.09-3.65,5.1-.37,0-.47-.14-.51-.2-.27-.43-.15-1.54.32-2.97.28-.84.61-1.61.79-2.01.09-.19.14-.31.15-.32.13-.3,0-.65-.3-.79-.3-.14-.65-.01-.8.28,0,.02-.08.17-.19.41-.87,1.8-3.08,5.41-5.35,5.68-.92.11-1.56-.06-1.88-.52-.45-.64-.28-1.8.12-2.63.45-.77.9-1.47,1.37-1.79.68-.46,1.32-.39,1.64-.12.25.21.3.52.14.88-.15.34.04.75.42.84.29.07.58-.11.7-.38.36-.84.18-1.71-.48-2.26-.67-.56-1.88-.77-3.09.04-.67.45-1.2,1.25-1.73,2.15-.01.02-.03.04-.04.06,0,0,0,.02-.01.03-.13.23-.27.47-.4.71-1.05,1.9-1.88,3.23-2.99,3.06-.42-.06-.54-.23-.6-.37-.29-.69.3-2.22,1.06-3.6.59-.89.96-1.55.98-1.59.16-.28.07-.64-.21-.81-.27-.17-.63-.1-.82.17-.02.03-.5.72-1.01,1.65-1.43,2.14-3.44,4.48-4.85,4.48,0,0,0,0-.01,0-.22,0-.31-.08-.38-.18-.09-.13-.24-.48-.2-1.29,1.19-1.21,2.54-2.77,3.51-4.48,1.13-1.99,1.74-4.41,1.36-5.41-.15-.38-.4-.54-.59-.6-1.49-.5-3.46,3.4-4.03,4.8-.26.65-1.21,3.08-1.42,5.15-.24.24-.48.46-.69.66-2.08,1.93-3.52,1.31-4.04.96-.15-.1-.29-.22-.41-.36.11-.08.22-.16.34-.24,3.92-2.79,4.09-3.33,4.17-3.62.24-.79-.12-1.48-.93-1.76-1.48-.51-4.33.42-5.23,2.76-.31.8-.28,1.7.03,2.5-1.34.93-2.44,1.65-2.45,1.66-.28.18-.36.56-.17.84.12.18.31.27.51.27.11,0,.23-.03.33-.1.01,0,1.08-.71,2.4-1.62.21.25.45.48.73.66,1.56,1.06,3.59.69,5.45-.98.06.33.17.63.33.87.31.47.79.72,1.38.72,0,0,.01,0,.02,0,1.06,0,2.26-.7,3.57-2.09-.02.4.04.76.17,1.06.18.42.59.94,1.52,1.09.14.02.27.03.4.03,1.17,0,2.04-.85,2.77-1.92.08.3.2.57.37.81.41.58,1.26,1.23,3.01,1.02,1.3-.16,2.61-1.02,3.9-2.58-.06.75.04,1.33.31,1.75.22.35.66.77,1.51.77.01,0,.02,0,.03,0,.6,0,1.43-.35,2.78-2.36-.02.68.08,1.22.32,1.62.22.37.65.81,1.49.82.67,0,1.36-.38,2.14-1.19.17-.18.35-.39.54-.61-.02.7.17,1.02.26,1.16.27.45.76.7,1.36.68.6-.01,1.23-.31,1.89-.89-.47,1.27-.96,2.51-1.58,3.56-.42-.1-.84-.21-1.25-.32-2.51-.67-4.89-1.29-6.61-.05-.73.53-1.03,1.36-.77,2.17.2.63.71,1.19,1.44,1.58.76.41,1.74.64,2.85.65.04,0,.07,0,.11,0,1.95,0,3.51-.87,4.79-2.67,1.56.34,3.18.53,4.73.2,1.39-.3,2.49-.82,3.25-1.54.6-.56.78-1.05.81-1.14v-.04c.11-.29-.05-.6-.34-.7ZM37.66,40.75c.82-2.01,1.86-3.43,2.41-3.92,0,.7-.33,2.34-1.32,4.08-.59,1.04-1.34,2.03-2.1,2.92.25-.98.61-2.08,1.01-3.07ZM29.5,45.56s-.06.05-.1.07c-.12-.45-.11-.92.06-1.35.55-1.43,2.18-2.12,3.21-2.12.19,0,.36.02.5.07.21.07.2.13.17.24-.07.12-.56.76-3.84,3.09ZM59.31,54.23c-1.31-.02-2.86-.47-3.16-1.39-.12-.4.11-.67.33-.83.48-.35,1.08-.49,1.77-.49,1.09,0,2.4.35,3.83.72.27.07.55.15.83.22-.89,1.09-2.03,1.79-3.6,1.77Z"/>
  <path class="st0" d="M44.18,40.04c.45.06.83-.28.83-.72v-.02c0-.49-.49-.87-1.01-.67-.27.1-.44.37-.44.66h0c0,.37.26.69.62.74Z"/>
  <path class="st0" d="M55.55,40.04c.45.06.83-.28.83-.72v-.02c0-.49-.49-.87-1.01-.67-.27.1-.44.37-.44.66h0c0,.37.26.69.62.74Z"/>
</svg>