<?xml version="1.0" encoding="UTF-8"?>
<svg id="_レイヤー_1" data-name="レイヤー 1" xmlns="http://www.w3.org/2000/svg" viewBox="0 0 420.06 55.73">
  <defs>
    <style>
      .cls-1 {
        fill: #2a2925;
      }
    </style>
  </defs>
  <path class="cls-1" d="M134.42,8.89h-12.74v.14c.42.7.7,1.68.7,2.59,0,1.54-.98,4.27-1.26,5.46l-8.12,23.31c-1.12,3.01-1.26,3.85-3.15,6.72v.14h10.57v-.14c-.56-.98-.84-1.75-.84-2.73,0-1.54.7-3.57,1.12-4.69l.56-1.68h11.48s.7,2.03,1.26,3.29c.42,1.12.56,2.17.56,2.87,0,.84-.14,1.54-.56,2.87v.14h15.4v-.14c-1.68-2.03-2.45-4.41-3.85-8.26l-11.13-29.89ZM123.29,31.85l3.57-10.71h0l3.71,10.71h-7.28ZM103.27,38.86c0,3.43.28,6.58,1.4,8.4v.14h-15.12v-.14c1.54-2.59,1.26-5.25,1.26-8.26v-7.84l-2.03-3.99-7.28-13.58c-.98-1.89-1.75-3.15-3.29-4.55v-.14h13.16v.14l7.84,15.89s1.75-3.57,2.17-4.41c.84-1.68,1.75-3.57,2.17-4.41.7-1.26,1.4-3.01,1.4-4.41s-.42-2.03-.84-2.59v-.28h10.43v.14l-10.57,20.86-.84,1.54.14,7.49h0ZM179.16,47.33h-27.02v-.14c1.12-2.45,1.26-4.55,1.26-8.26v-21.7c0-4.55-.42-6.3-1.26-8.12v-.14h14.7v.14c-.98,2.59-1.12,4.13-1.12,8.26v22.12c1.68.28,3.57.56,5.6.56,4.41,0,6.72-.42,8.4-1.12h.42l-.98,8.4ZM60.28,7.98c-11.97,0-20.16,7.42-20.16,17.85,0,15.26,16.17,17.43,21.84,12.46l-.98-1.89c-4.97.98-9.31-2.73-9.31-11.13,0-6.72,3.57-10.99,8.54-10.99,5.74,0,9.31,5.74,9.31,14.14,0,9.45-5.46,16.59-15.68,16.59-11.69,0-20.44-9.17-25.97-18.41,6.02-2.31,9.59-6.86,9.59-13.02C37.46,5.6,31.43,0,20.58,0H0v.14c.84,1.75,1.26,5.11,1.26,9.59v29.26c0,3.71-.14,5.74-1.26,8.26v.14h15.26v-.14c-.98-2.31-1.26-5.46-1.26-8.26v-8.12h1.89c10.57,15.54,22.68,21.98,35.57,21.98,18.69,0,29.68-11.83,29.68-24.85,0-11.13-8.4-20.02-20.86-20.02ZM14.14,24.71V7.28h4.27c4.97,0,7,2.87,7,7.56,0,5.6-3.29,10.01-8.68,10.01-.84-.14-2.31-.14-2.59-.14ZM270.17,9.03c-.84,1.75-1.26,3.71-1.26,8.12v23.87c.14,2.45.28,4.13,1.26,6.02v.14h-8.96c-1.89-.84-3.99-3.15-6.72-6.02-2.17-2.31-12.46-14.28-12.46-14.28h-.14v11.41c-3.01.28-6.58,1.12-9.31,1.75v-23.03c0-4.55-.42-6.3-1.26-8.12v-.14h10.85l17.43,21.14h0v-12.6c0-4.55-.42-6.3-1.26-8.12v-.14h11.83ZM252.18,47.33c-15.26.14-18.83,8.4-38.16,8.4-9.31,0-17.57-2.45-17.57-2.45v-.14c1.12-2.45,1.26-4.41,1.26-8.12V9.73c0-4.55-.42-7.84-1.26-9.59v-.14h31.15l.98,8.68h0c-2.31-.98-5.25-1.26-9.31-1.26h-8.26v14.98h3.99c6.16,0,9.73-.42,10.71-.7h.28v9.03h-.14c-1.26-.42-5.46-.84-10.57-.84h-4.13v14.98s4.83,1.12,9.17,1.12c11.55,0,16.45-4.13,27.86-4.13h.98c2.17,2.59,4.13,4.69,4.97,5.46q-.84,0-1.96,0ZM318.48,17.29v21.84c0,3.71.14,5.74,1.26,8.26v.14h-14.84v-.14c1.12-2.45,1.26-4.55,1.26-8.26v-21.84c0-4.55-.42-6.3-1.26-8.12v-.14h14.84v.14c-.84,1.82-1.26,3.57-1.26,8.12ZM288.72,25.69h1.12c5.46,0,7.28-.42,8.12-.56h.28v7.98h-.28c-1.12-.42-3.43-.84-7.98-.84h-1.26v6.58c0,3.85.14,6.44,1.4,8.4v.14h-14.98v-.14c1.12-2.45,1.26-4.55,1.26-8.26v-21.7c0-4.55-.42-6.3-1.26-8.12v-.14h25.55l.98,7.84h-.21c-1.75-.84-4.13-1.26-7.84-1.26h-4.97v10.08h.07ZM352.08,39.42l-.98,7.98h-26.39v-.14c1.12-2.45,1.26-4.55,1.26-8.26v-21.7c0-4.55-.42-6.3-1.26-8.12v-.14h25.55l.98,7.84h-.07c-1.75-.84-4.13-1.26-7.84-1.26h-4.97v8.75h.98c5.46,0,7.28-.42,8.12-.56h.28v7.98h-.28c-1.12-.42-3.43-.84-7.98-.84h-1.26v9.03c1.75.28,3.01.42,5.11.42,4.69,0,6.3-.28,8.26-1.12h.49v.14ZM420.06,29.4c0,13.16-9.59,23.45-25.83,23.45-12.46,0-16.45-5.46-31.99-5.46h-6.44v-.14c1.12-2.45,1.26-4.55,1.26-8.26v-21.84c0-4.55-.42-6.3-1.26-8.12v-.14h14.84v.14c-.84,1.75-1.26,4.69-1.26,8.26v23.31c9.17,0,13.3,2.73,21.42,2.73,11.27,0,16.73-6.16,16.73-14.98,0-7.56-3.85-13.16-10.57-13.16h-4.41v23.73c-4.13.14-8.89-.42-12.32-1.68v-20.16c0-4.55-.42-6.3-1.26-8.12v-.14h17.43c14.49.07,23.66,9.03,23.66,20.58Z"/>
</svg>
